<svg width="20" height="20" viewBox="0 0 20 20" fill="none" xmlns="http://www.w3.org/2000/svg">
<g clip-path="url(#clip0_49_435)">
<path fill-rule="evenodd" clip-rule="evenodd" d="M0.291979 0.332619C-0.0980206 0.700801 -0.0980206 1.29626 0.291979 1.66353L8.55598 9.44807C8.73814 9.62233 8.95739 9.76108 9.20038 9.85589C9.44338 9.95071 9.70505 9.9996 9.96948 9.9996C10.2339 9.9996 10.4956 9.95071 10.7386 9.85589C10.9816 9.76108 11.2008 9.62233 11.383 9.44807L19.708 1.60717C19.894 1.42921 19.9986 1.19356 20.0005 0.948054C20.0023 0.702551 19.9013 0.465608 19.718 0.285347C19.6274 0.196049 19.5177 0.124598 19.3956 0.0754203C19.2734 0.0262423 19.1415 0.000384012 19.0079 -0.000553441C18.8743 -0.00149089 18.7419 0.0225125 18.6189 0.0699703C18.496 0.117428 18.385 0.18733 18.293 0.275347L10.676 7.45171C10.5849 7.53891 10.4752 7.60835 10.3537 7.6558C10.2321 7.70324 10.1013 7.72771 9.96898 7.72771C9.8367 7.72771 9.70581 7.70324 9.58426 7.6558C9.46272 7.60835 9.35307 7.53891 9.26198 7.45171L1.70498 0.332619C1.61398 0.245446 1.50441 0.176027 1.38295 0.128588C1.26149 0.0811494 1.13068 0.0566851 0.99848 0.0566851C0.866283 0.0566851 0.73547 0.0811494 0.614008 0.128588C0.492546 0.176026 0.382978 0.245446 0.291979 0.332619Z" fill="#414548"/>
</g>
<g clip-path="url(#clip1_49_435)">
<path fill-rule="evenodd" clip-rule="evenodd" d="M0.291979 10.3326C-0.0980206 10.7008 -0.0980206 11.2963 0.291979 11.6635L8.55598 19.4481C8.73814 19.6223 8.95739 19.7611 9.20038 19.8559C9.44338 19.9507 9.70505 19.9996 9.96948 19.9996C10.2339 19.9996 10.4956 19.9507 10.7386 19.8559C10.9816 19.7611 11.2008 19.6223 11.383 19.4481L19.708 11.6072C19.894 11.4292 19.9986 11.1936 20.0005 10.9481C20.0023 10.7026 19.9013 10.4656 19.718 10.2853C19.6274 10.196 19.5177 10.1246 19.3956 10.0754C19.2734 10.0262 19.1415 10.0004 19.0079 9.99945C18.8743 9.99851 18.7419 10.0225 18.6189 10.07C18.496 10.1174 18.385 10.1873 18.293 10.2753L10.676 17.4517C10.5849 17.5389 10.4752 17.6083 10.3537 17.6558C10.2321 17.7032 10.1013 17.7277 9.96898 17.7277C9.8367 17.7277 9.70581 17.7032 9.58426 17.6558C9.46272 17.6083 9.35307 17.5389 9.26198 17.4517L1.70498 10.3326C1.61398 10.2454 1.50441 10.176 1.38295 10.1286C1.26149 10.0811 1.13068 10.0567 0.99848 10.0567C0.866283 10.0567 0.73547 10.0811 0.614008 10.1286C0.492546 10.176 0.382978 10.2454 0.291979 10.3326Z" fill="#414548"/>
</g>
<defs>
<clipPath id="clip0_49_435">
<rect width="10" height="20" fill="white" transform="translate(20) rotate(90)"/>
</clipPath>
<clipPath id="clip1_49_435">
<rect width="10" height="20" fill="white" transform="translate(20 10) rotate(90)"/>
</clipPath>
</defs>
</svg>
