<svg width="12" height="21" viewBox="0 0 12 21" fill="none" xmlns="http://www.w3.org/2000/svg">
<path d="M7.23142 20.9499H3.92825C3.37651 20.9499 2.92769 20.4941 2.92769 19.9337V12.3665H1.00055C0.448817 12.3665 0 11.9104 0 11.3502V8.10765C0 7.54726 0.448817 7.09141 1.00055 7.09141H2.92769V5.46765C2.92769 3.85763 3.42545 2.48784 4.36699 1.50661C5.31278 0.520903 6.63452 0 8.18933 0L10.7085 0.0041557C11.2593 0.00511473 11.7073 0.460965 11.7073 1.02039V4.03105C11.7073 4.59143 11.2587 5.04728 10.7071 5.04728L9.01095 5.04792C8.49368 5.04792 8.36196 5.15325 8.3338 5.18554C8.28737 5.23908 8.23213 5.39045 8.23213 5.80842V7.09125H10.5796C10.7563 7.09125 10.9276 7.13553 11.0747 7.21896C11.3921 7.3991 11.5894 7.73971 11.5894 8.10781L11.5882 11.3504C11.5882 11.9104 11.1394 12.3663 10.5876 12.3663H8.23213V19.9337C8.23213 20.4941 7.78316 20.9499 7.23142 20.9499ZM4.13692 19.7218H7.02275V11.8166C7.02275 11.4425 7.32254 11.1381 7.69078 11.1381H10.379L10.3801 8.31959H7.69063C7.32238 8.31959 7.02275 8.01526 7.02275 7.64109V5.80842C7.02275 5.32859 7.07075 4.78291 7.42735 4.37278C7.85823 3.87697 8.53727 3.81974 9.01064 3.81974L10.4981 3.81911V1.23201L8.18839 1.22817C5.68968 1.22817 4.13692 2.85274 4.13692 5.46765V7.64109C4.13692 8.0151 3.83729 8.31959 3.46904 8.31959H1.20922V11.1381H3.46904C3.83729 11.1381 4.13692 11.4425 4.13692 11.8166V19.7218ZM10.7061 1.23233H10.7063H10.7061Z" fill="#161B25"/>
</svg>
