<svg width="20" height="19" viewBox="0 0 20 19" fill="none" xmlns="http://www.w3.org/2000/svg">
<path d="M1.26611 18.9104H6.19206V5.957H1.26611V18.9104ZM2.38082 7.07171H5.07734V17.7957H2.38082V7.07171Z" fill="#161B25"/>
<path d="M3.72888 0.0394897C2.21069 0.0394897 0.975586 1.27463 0.975586 2.79279C0.975586 4.31095 2.21069 5.54612 3.72888 5.54612C5.24708 5.54612 6.48222 4.31099 6.48222 2.79279C6.48222 1.27459 5.24705 0.0394897 3.72888 0.0394897ZM2.0903 2.79279C2.0903 1.88928 2.82534 1.1542 3.72888 1.1542C4.63243 1.1542 5.36751 1.88924 5.36751 2.79279C5.36751 3.69633 4.63243 4.43141 3.72888 4.43141C2.82534 4.43141 2.0903 3.6963 2.0903 2.79279Z" fill="#161B25"/>
<path d="M19.988 10.0246C19.8126 7.50327 17.7096 5.56036 15.1022 5.56036C13.936 5.56036 12.835 5.96582 11.9676 6.68526V5.95698H7.24756V18.9104H12.1735V11.8259C12.1735 11.0275 12.8231 10.3779 13.6215 10.3779C14.4199 10.3779 15.0695 11.0275 15.0695 11.8262L15.0743 18.9104H19.9999V10.0365L19.988 10.0246ZM11.0588 17.7958H8.36227V7.07173H10.8529V8.66379L11.7448 8.66892L11.9105 8.41164C12.611 7.32424 13.8041 6.67511 15.1022 6.67511C17.1769 6.67511 18.8381 8.25807 18.8841 10.2788L18.8852 17.7958H16.1882L16.1842 11.8259C16.1842 10.4128 15.0346 9.26317 13.6215 9.26317C12.2085 9.26317 11.0588 10.4128 11.0588 11.8259V17.7958Z" fill="#161B25"/>
</svg>
