<svg width="29" height="29" viewBox="0 0 29 29" fill="none" xmlns="http://www.w3.org/2000/svg">
<path d="M24.484 4.20258L22.4616 6.22499C24.527 8.30477 25.8179 11.1734 25.8179 14.3433C25.8179 20.683 20.683 25.8179 14.3433 25.8179C8.00356 25.8179 2.86866 20.683 2.86866 14.3433C2.86866 8.49123 7.24336 3.67188 12.909 2.96906V5.86641C8.83547 6.55488 5.73732 10.0833 5.73732 14.3433C5.73732 19.0909 9.59566 22.9493 14.3433 22.9493C19.0909 22.9493 22.9493 19.0909 22.9493 14.3433C22.9493 11.9623 21.9883 9.81081 20.4248 8.26174L18.4024 10.2841C19.4352 11.3312 20.0806 12.7655 20.0806 14.3433C20.0806 17.5132 17.5132 20.0806 14.3433 20.0806C11.1734 20.0806 8.60598 17.5132 8.60598 14.3433C8.60598 11.6754 10.4419 9.45223 12.909 8.80678V11.8762C12.0484 12.3783 11.4746 13.2819 11.4746 14.3433C11.4746 15.9211 12.7655 17.212 14.3433 17.212C15.9211 17.212 17.212 15.9211 17.212 14.3433C17.212 13.2819 16.6382 12.3639 15.7776 11.8762V0H14.3433C6.4258 0 0 6.4258 0 14.3433C0 22.2608 6.4258 28.6866 14.3433 28.6866C22.2608 28.6866 28.6866 22.2608 28.6866 14.3433C28.6866 10.3845 27.0801 6.79872 24.484 4.20258Z" fill="#161B25"/>
</svg>
