<svg width="218" height="34" viewBox="0 0 218 34" fill="none" xmlns="http://www.w3.org/2000/svg">
<path d="M56.3052 5.59909V10.3128H77.6335V5.59909H56.3052ZM61.0216 23.9949H56.3052V28.6669H77.6335V23.9949H61.0216ZM56.3052 14.7762V19.4898H73.4179V14.7762H56.3052Z" fill="#161B25"/>
<path d="M217.791 15.235C216.957 9.4785 211.948 5.01511 205.938 5.01511C199.343 5.01511 193.959 10.3545 193.959 16.987C193.959 19.2813 194.626 21.4921 195.753 23.3275C196.087 23.8281 196.463 24.3287 196.839 24.7875L199.343 21.7841C199.051 21.367 198.8 20.9498 198.55 20.491C198.049 19.4481 197.757 18.2384 197.757 16.9453C197.757 12.4402 201.43 8.76936 205.938 8.76936C209.819 8.76936 213.075 11.5225 213.868 15.1516C213.993 15.6939 214.077 16.3196 214.077 16.9036C214.077 17.3624 214.035 17.7796 213.951 18.1967C213.826 18.9476 213.576 19.6984 213.284 20.3658C213.075 20.8247 212.824 21.2418 212.532 21.6173L212.491 21.659C212.157 22.1178 211.781 22.535 211.364 22.9104C211.28 22.9938 211.155 23.0772 211.071 23.1607C211.03 23.2024 210.988 23.2024 210.946 23.2441C210.904 23.2858 210.863 23.2858 210.863 23.3275C210.863 23.3275 210.821 23.3275 210.821 23.3692C210.362 23.7029 209.819 24.0367 209.277 24.2452C208.984 24.3704 208.651 24.4955 208.317 24.6207C207.565 24.8292 206.814 24.9544 205.979 24.9544C205.186 24.9544 204.393 24.8292 203.684 24.6207C203.35 24.5372 203.016 24.4121 202.724 24.2452L200.47 26.9983C200.386 27.0818 200.303 27.2069 200.219 27.2903C200.762 27.5823 201.346 27.8743 201.931 28.0829C202.39 28.2498 202.891 28.4166 203.392 28.5C204.226 28.7086 205.145 28.792 206.105 28.792C207.565 28.792 208.984 28.5418 210.237 28.0829C210.821 27.8743 211.405 27.5823 211.948 27.2903C212.574 26.9566 213.158 26.5395 213.701 26.0806C213.826 25.9555 213.951 25.8721 214.077 25.7469C214.118 25.7052 214.16 25.6635 214.202 25.6218C214.369 25.4549 214.536 25.3298 214.661 25.1629C214.828 24.9961 214.953 24.8292 215.12 24.6624C215.537 24.2035 215.871 23.7029 216.205 23.2024C216.456 22.827 216.664 22.4098 216.873 21.9927C216.915 21.9092 216.957 21.8258 216.957 21.7841C217.082 21.5338 217.207 21.2418 217.29 20.9498C217.75 19.6984 218 18.3218 218 16.8619C217.917 16.403 217.875 15.819 217.791 15.235Z" fill="#161B25"/>
<path d="M217.917 16.987C217.917 18.4053 217.666 19.8236 217.207 21.075C217.123 21.367 216.998 21.6173 216.873 21.9093C216.831 21.9927 216.79 22.0761 216.79 22.1178C216.581 22.535 216.372 22.9521 216.122 23.3276C215.788 23.8698 215.412 24.3287 215.037 24.7875C214.87 24.9544 214.744 25.1213 214.577 25.2881C214.41 25.455 214.285 25.5801 214.118 25.747H210.821V19.7819L212.491 21.7841L212.532 21.7424C212.824 21.367 213.075 20.9499 213.284 20.491C213.617 19.8236 213.826 19.0727 213.951 18.3219C214.035 17.9047 214.077 17.4459 214.077 17.0287C214.077 16.4448 213.993 15.8608 213.868 15.2768H217.791C217.875 15.819 217.917 16.403 217.917 16.987Z" fill="url(#paint0_linear_11_6)"/>
<path d="M216.79 22.1178C216.581 22.535 216.372 22.9521 216.122 23.3275C215.788 23.8698 215.412 24.3287 215.037 24.7875C214.87 24.9544 214.744 25.1212 214.577 25.2881C214.411 25.4549 214.285 25.5801 214.118 25.7469C213.951 25.9138 213.784 26.0389 213.617 26.1641C213.075 26.6229 212.491 27.0401 211.864 27.3738C211.781 27.2904 211.698 27.2069 211.614 27.0818L209.36 24.3287L206.021 20.3658L202.682 24.3287C202.139 24.0784 201.597 23.7864 201.096 23.411C201.012 23.3692 200.971 23.2858 200.887 23.2441C200.762 23.1607 200.679 23.0772 200.595 22.9938C200.178 22.6184 199.802 22.2013 199.468 21.7424L206.021 13.9419L210.863 19.7401L212.532 21.7424L212.783 22.0761L212.95 22.2847C213.409 22.7435 214.035 23.0355 214.744 23.0355C215.621 23.2024 216.33 22.7852 216.79 22.1178Z" fill="#161B25"/>
<path d="M28.09 28.6669V14.8179H44.6185C45.8706 14.8179 46.8306 13.8167 46.8306 12.607C46.8306 11.3556 45.8289 10.3962 44.6185 10.3962H31.3456L28.0483 5.68253H44.5767C48.4166 5.68253 51.5053 8.81107 51.5053 12.607C51.5053 16.403 48.4584 19.5316 44.6185 19.5316H32.8065V28.7086H28.09V28.6669Z" fill="#161B25"/>
<path d="M87.9012 15.6521V28.7086H83.1848V5.59909L99.7967 18.8224V5.59909H104.513V28.7086L87.9012 15.6521Z" fill="#161B25"/>
<path d="M137.194 33.5474L124.088 10.7716L117.076 23.9115H122.878L119.915 28.6252H108.854L124.088 0.968842L139.907 28.3332L137.194 33.5474Z" fill="#161B25"/>
<path d="M148.714 28.6669C144.791 28.6669 141.66 25.4966 141.66 21.659V5.59909H146.377V21.6172C146.377 22.8687 147.42 23.9532 148.714 23.9532H158.105C159.357 23.9532 160.443 22.9104 160.443 21.6172V5.59909H165.159V21.6172C165.159 25.4966 161.945 28.6252 158.105 28.6252H148.714V28.6669Z" fill="#161B25"/>
<path d="M179.016 28.6669V10.3128H169.625V5.59909H193.082L190.995 10.3128H183.691V28.6252H179.016V28.6669Z" fill="#161B25"/>
<path d="M11.9372 5.05679C5.34252 5.05679 0 10.3962 0 16.987C0 23.5778 5.34252 28.9172 11.9372 28.9172C18.5319 28.9172 23.8744 23.5778 23.8744 16.987C23.8744 10.3962 18.5319 5.05679 11.9372 5.05679ZM11.9372 24.3703C7.84683 24.3703 4.59123 21.0749 4.59123 17.0287C4.59123 12.9824 7.84683 9.64532 11.9372 9.64532C16.0276 9.64532 19.2832 12.9407 19.2832 16.987C19.3249 21.0749 16.0276 24.3703 11.9372 24.3703Z" fill="#161B25"/>
<defs>
<linearGradient id="paint0_linear_11_6" x1="213.334" y1="23.6513" x2="214.776" y2="17.3128" gradientUnits="userSpaceOnUse">
<stop stop-color="#030405"/>
<stop offset="0.7726" stop-color="#161B25"/>
</linearGradient>
</defs>
</svg>
