<svg width="32" height="32" viewBox="0 0 32 32" fill="none" xmlns="http://www.w3.org/2000/svg">
<path d="M31.0999 24.4558C31.0876 24.4216 29.8637 21.0113 29.1264 18.2596L29.0285 17.8944L21.0795 13.305L14.7343 14.5598L11.9222 12.9363C10.937 12.3674 9.78915 12.2162 8.69019 12.5108C7.59123 12.8052 6.6728 13.51 6.10394 14.4953C5.33843 15.8212 5.3697 17.3916 6.0473 18.6498C5.86116 19.6356 4.99409 20.3837 3.95513 20.3837C2.78084 20.3837 1.82548 19.4284 1.82548 18.2541C1.82548 17.0798 2.78084 16.1244 3.95513 16.1244H4.86783V10.3864C6.10084 9.99786 6.99748 8.84383 6.99748 7.48414C6.99748 6.12445 6.10078 4.97048 4.86777 4.58185V0H3.04236V4.58185C1.80935 4.97042 0.912707 6.12445 0.912707 7.48414C0.912707 8.84383 1.80935 9.99786 3.04236 10.3864V14.4053C1.3 14.8184 0 16.3872 0 18.2541C0 20.4349 1.77424 22.2092 3.95507 22.2092C5.44509 22.2092 6.74485 21.3806 7.41909 20.1604C7.49649 20.2123 7.57529 20.2627 7.65707 20.3101C7.48298 20.9324 7.47757 21.5922 7.64916 22.2327C7.90155 23.1746 8.50564 23.9619 9.3502 24.4495C9.91273 24.7743 10.537 24.9402 11.1697 24.9402C11.4868 24.9402 11.8061 24.8985 12.1205 24.8143C12.761 24.6426 13.3297 24.3081 13.7815 23.8462L18.4068 26.5166C18.2328 27.1389 18.2274 27.7986 18.399 28.4391C18.6514 29.381 19.2554 30.1683 20.1 30.6559C20.6626 30.9807 21.2869 31.1466 21.9195 31.1466C22.2366 31.1466 22.5559 31.1049 22.8703 31.0207C23.5316 30.8435 24.1161 30.4923 24.5748 30.007C25.0863 30.1997 25.6244 30.2974 26.1674 30.2974C26.5637 30.2974 26.9628 30.2454 27.3559 30.14C28.5334 29.8245 29.5174 29.0694 30.128 28.0117L31.1537 26.2251V24.6056L31.0999 24.4558ZM2.73812 7.4842C2.73812 6.81318 3.28404 6.26726 3.95507 6.26726C4.62609 6.26726 5.17201 6.81318 5.17201 7.4842C5.17201 8.15522 4.62609 8.70114 3.95507 8.70114C3.28404 8.70114 2.73812 8.15522 2.73812 7.4842ZM12.7564 22.2005C12.5126 22.6227 12.119 22.9248 11.648 23.051C11.1771 23.1773 10.6851 23.1126 10.2628 22.8687C9.84063 22.6249 9.53858 22.2312 9.41233 21.7603C9.28613 21.2893 9.35093 20.7974 9.59468 20.3751C9.93245 19.7901 10.5472 19.4628 11.1787 19.4628C11.4881 19.4628 11.8016 19.5414 12.0883 19.7069C12.96 20.2102 13.2597 21.3288 12.7564 22.2005ZM23.5062 28.4069C23.2624 28.8291 22.8688 29.1313 22.3978 29.2574C21.9269 29.3837 21.435 29.319 21.0127 29.0751C20.5904 28.8313 20.2883 28.4377 20.1621 27.9667C20.0359 27.4957 20.1007 27.0038 20.3445 26.5815C20.6823 25.9966 21.2971 25.6692 21.9285 25.6692C22.2379 25.6692 22.5514 25.7478 22.8381 25.9133C23.7098 26.4166 24.0095 27.5352 23.5062 28.4069ZM29.3284 25.7384H29.3283L28.5461 27.1011C28.1804 27.7345 27.59 28.1876 26.8835 28.3769C26.4118 28.5033 25.9262 28.5013 25.467 28.3776C25.8504 26.8377 25.1921 25.1646 23.7508 24.3325C22.2803 23.4835 20.4585 23.7772 19.3201 24.9362L14.6936 22.2651C15.1282 20.6998 14.4715 18.9751 13.001 18.1261C11.5305 17.2771 9.70871 17.5708 8.57038 18.7297C7.41228 18.0571 7.0147 16.5685 7.68469 15.4081C8.00974 14.8451 8.53461 14.4424 9.16261 14.2741C9.79055 14.1058 10.4465 14.1922 11.0095 14.5172L14.4155 16.4837L20.7608 15.2289L27.463 19.0984C28.1374 21.5353 29.0903 24.2526 29.3284 24.9228V25.7384Z" fill="#161B25"/>
</svg>
