<svg width="23" height="21" viewBox="0 0 23 21" fill="none" xmlns="http://www.w3.org/2000/svg">
<path d="M22.22 4.19572C22.0902 3.98461 21.8527 3.86495 21.6055 3.88639L20.511 3.98174L21.5572 1.87266C21.6818 1.62146 21.6326 1.31882 21.4348 1.12001C21.237 0.921206 20.9347 0.870529 20.6829 0.993834L17.9138 2.34997C16.203 1.44679 14.0656 1.71488 12.5949 3.05464C11.3674 4.17278 10.7222 5.89232 10.8425 7.60709C7.63434 7.28554 4.91872 5.44922 3.31293 2.48211C3.20639 2.28527 3.00664 2.15652 2.7834 2.1407C2.55973 2.12514 2.34425 2.22426 2.21108 2.4042C1.21513 3.74966 1.14524 5.59443 1.92601 7.11212C1.71079 7.05775 1.48176 6.98418 1.22777 6.89933C1.01019 6.82658 0.770313 6.87318 0.595689 7.02204C0.421064 7.1709 0.337118 7.40031 0.374461 7.62673C0.683408 9.49979 1.77566 10.9393 3.50106 11.7914C3.2764 11.8696 3.04716 11.9332 2.81406 11.9817C2.58245 12.03 2.39492 12.1995 2.32354 12.425C2.25215 12.6505 2.30798 12.8971 2.46961 13.0698C3.71213 14.3979 5.50699 15.0516 6.78188 15.3652C5.33232 16.5004 3.76757 16.6903 1.49381 16.6123C1.2306 16.6043 0.988111 16.7526 0.877454 16.9911C0.76684 17.2298 0.809757 17.5115 0.986525 17.7063C1.93437 18.7511 5.38767 19.9292 9.01787 20.0175C9.16145 20.021 9.30791 20.0229 9.45745 20.0229C12.0063 20.0228 15.375 19.4764 17.7929 17.0585C19.623 15.2284 20.7678 13.1215 21.1952 10.7967C21.5404 8.91894 21.3222 7.41527 21.2174 6.6926C21.2097 6.63948 21.2014 6.5831 21.1948 6.53379L22.2186 4.88359C22.3492 4.67308 22.3498 4.40683 22.22 4.19572ZM19.9217 6.88055C20.116 8.21924 20.707 12.2929 16.8672 16.1327C14.6352 18.3647 11.3842 18.7655 9.04968 18.7087C7.05773 18.6603 5.27599 18.2793 3.98463 17.8448C4.50894 17.7805 4.97617 17.6813 5.41721 17.5443C6.63307 17.1663 7.66023 16.4863 8.64967 15.4042C8.8146 15.2238 8.86528 14.9667 8.78121 14.7372C8.69713 14.5078 8.4922 14.3443 8.24979 14.3132C7.62559 14.2332 5.75004 13.9175 4.27313 12.8987C4.69874 12.7247 5.10921 12.5068 5.50116 12.2468C5.71617 12.1042 5.82739 11.8485 5.78503 11.594C5.74271 11.3395 5.55488 11.1335 5.30527 11.0681C4.09645 10.7511 2.63755 10.042 1.96481 8.45899C2.39441 8.53428 2.86152 8.5525 3.35971 8.44081C3.59063 8.38911 3.77567 8.21675 3.84358 7.99004C3.91153 7.76332 3.85185 7.51757 3.68748 7.34736C2.85041 6.48037 2.53739 5.23095 2.80595 4.16181C3.68546 5.4472 4.79971 6.52899 6.07631 7.3288C7.70941 8.35198 9.61548 8.91744 11.5886 8.96387C11.7893 8.96811 11.9819 8.88048 12.1098 8.72494C12.2376 8.56943 12.2867 8.36377 12.243 8.16728C11.9035 6.64119 12.3877 5.01431 13.4765 4.02251C14.6058 2.99376 16.2748 2.8377 17.5352 3.64325C17.7276 3.76626 17.9704 3.78002 18.1756 3.67952L19.5279 3.01721L18.8201 4.44409C18.7149 4.6561 18.7324 4.90837 18.8658 5.10383C18.9991 5.29929 19.2272 5.4078 19.4633 5.38709L20.4169 5.30405L19.9777 6.01211C19.8302 6.24976 19.8608 6.46061 19.9217 6.88055Z" fill="#161B25"/>
</svg>
